<svg width="179" height="46" viewBox="0 0 179 46" fill="none" xmlns="http://www.w3.org/2000/svg">
<path d="M68.4498 45.7447V37.7287H69.8483V45.7447H68.4498Z" fill="#FF6300"/>
<path d="M77.3416 37.7287V39.0277H75.1491V45.7447H73.7451V39.0277H71.5411V37.7287H77.3416Z" fill="#FF6300"/>
<path d="M78.6069 40.7862L79.4297 37.7287H80.9892L79.752 40.7862H78.6069Z" fill="#FF6300"/>
<path d="M85.1794 45.8824C84.4598 45.9048 83.7591 45.6529 83.223 45.1791C82.9691 44.9594 82.7671 44.6876 82.6309 44.3829C82.4948 44.0781 82.4278 43.7477 82.4347 43.4148H83.8733C83.8696 43.5784 83.9021 43.7409 83.9687 43.8908C84.0353 44.0407 84.1343 44.1745 84.2588 44.2827C84.5147 44.517 84.8534 44.6432 85.2025 44.6345C85.5322 44.6439 85.8545 44.5373 86.1117 44.3338C86.2259 44.2457 86.3181 44.1328 86.3809 44.004C86.4438 43.8751 86.4757 43.7337 86.4742 43.5907C86.4742 42.9838 85.9333 42.5527 84.8515 42.2917C83.3266 41.9116 82.567 41.1061 82.5613 39.8638C82.5565 39.5557 82.6211 39.2504 82.7505 38.9698C82.8798 38.6893 83.0707 38.4405 83.3094 38.2415C83.8356 37.8133 84.4974 37.5805 85.1798 37.5836C85.8621 37.5867 86.5218 37.8256 87.0439 38.2586C87.2865 38.4683 87.4797 38.7278 87.6099 39.0188C87.7401 39.3098 87.8042 39.6254 87.7977 39.9434H86.3591C86.362 39.7941 86.3333 39.6459 86.2748 39.5082C86.2164 39.3705 86.1295 39.2463 86.0197 39.1435C85.7849 38.9308 85.4752 38.8169 85.1565 38.8259C84.8567 38.8149 84.5635 38.9139 84.3336 39.1037C84.2263 39.1898 84.1404 39.299 84.0825 39.4229C84.0247 39.5469 83.9964 39.6822 83.9999 39.8186C83.9999 40.4028 84.5063 40.8169 85.519 41.0608C86.1649 41.2013 86.767 41.4931 87.2741 41.9116C87.6999 42.2975 87.9129 42.825 87.9129 43.5C87.9193 43.8232 87.8523 44.1438 87.7169 44.4382C87.5815 44.7326 87.381 44.9935 87.1302 45.2017C86.5895 45.6617 85.8933 45.9047 85.1794 45.8824V45.8824Z" fill="#FF6300"/>
<path d="M100.064 37.7287H101.629L98.4011 42.8737V45.7447H96.9971V42.8745L93.7689 37.7294H95.3628L97.7163 41.4785L100.064 37.7287Z" fill="#FF6300"/>
<path d="M106.294 45.8839C105.074 45.8839 104.055 45.4868 103.238 44.6927C102.452 43.9028 102.012 42.8407 102.012 41.7345C102.012 40.6282 102.452 39.5661 103.238 38.7762C104.055 37.9821 105.074 37.585 106.294 37.585C106.857 37.5702 107.418 37.6681 107.942 37.8729C108.466 38.0776 108.943 38.3849 109.343 38.7762C110.129 39.5661 110.569 40.6282 110.569 41.7345C110.569 42.8407 110.129 43.9028 109.343 44.6927C108.943 45.084 108.466 45.3913 107.942 45.596C107.418 45.8008 106.857 45.8987 106.294 45.8839ZM108.319 43.7341C108.724 43.3412 109.001 42.8379 109.114 42.2887C109.227 41.7395 109.17 41.1697 108.952 40.6524C108.733 40.1351 108.363 39.6941 107.888 39.386C107.413 39.078 106.856 38.9169 106.288 38.9237C105.914 38.9143 105.542 38.981 105.196 39.1196C104.849 39.2581 104.535 39.4657 104.274 39.7292C103.753 40.2694 103.462 40.9863 103.462 41.7317C103.462 42.4771 103.753 43.194 104.274 43.7342C104.535 43.9985 104.849 44.2069 105.195 44.3465C105.542 44.486 105.914 44.5538 106.288 44.5454C106.665 44.5543 107.039 44.487 107.389 44.3474C107.738 44.2079 108.055 43.9991 108.319 43.7341V43.7341Z" fill="#FF6300"/>
<path d="M113.42 44.9611C113.107 44.6626 112.861 44.3032 112.696 43.9058C112.532 43.5083 112.453 43.0815 112.465 42.6524V37.7287H113.858V42.6298C113.849 42.8865 113.893 43.1422 113.987 43.3817C114.081 43.6213 114.222 43.8399 114.403 44.0244C114.585 44.2089 114.802 44.3556 115.041 44.4558C115.281 44.556 115.539 44.6076 115.8 44.6076C116.06 44.6076 116.318 44.556 116.558 44.4558C116.798 44.3556 117.015 44.2089 117.196 44.0244C117.377 43.8399 117.519 43.6213 117.612 43.3817C117.706 43.1422 117.75 42.8865 117.742 42.6298V37.7287H119.146V42.6524C119.157 43.081 119.079 43.5072 118.916 43.9045C118.752 44.3018 118.507 44.6615 118.196 44.9611C117.547 45.5555 116.694 45.8858 115.808 45.8858C114.922 45.8858 114.069 45.5555 113.42 44.9611V44.9611Z" fill="#FF6300"/>
<path d="M125.293 45.7458L122.997 42.762H122.842V45.7458H121.443V37.7297H124.188C124.539 37.72 124.889 37.7791 125.217 37.9036C125.545 38.0282 125.845 38.2157 126.099 38.4553C126.349 38.6877 126.546 38.9695 126.678 39.2823C126.81 39.5951 126.873 39.9318 126.864 40.2705C126.879 40.87 126.661 41.4524 126.254 41.8985C125.845 42.3477 125.289 42.6409 124.683 42.7266L127.048 45.7449L125.293 45.7458ZM122.842 39.0295V41.5537H124.165C124.333 41.5591 124.499 41.5296 124.654 41.4671C124.809 41.4046 124.948 41.3104 125.063 41.1909C125.289 40.9422 125.414 40.6201 125.414 40.2862C125.414 39.9523 125.289 39.6301 125.063 39.3814C124.946 39.2655 124.806 39.1745 124.651 39.114C124.497 39.0535 124.332 39.0248 124.165 39.0296L122.842 39.0295Z" fill="#FF6300"/>
<path d="M135.965 45.8824C135.245 45.9048 134.545 45.6529 134.008 45.1791C133.755 44.9594 133.553 44.6876 133.416 44.3829C133.28 44.0781 133.213 43.7478 133.22 43.4148H134.659C134.655 43.5784 134.687 43.7409 134.754 43.8908C134.821 44.0407 134.92 44.1745 135.044 44.2827C135.3 44.517 135.639 44.6432 135.988 44.6345C136.318 44.6439 136.64 44.5373 136.897 44.3338C137.011 44.2457 137.103 44.1328 137.166 44.0039C137.229 43.8751 137.261 43.7337 137.26 43.5907C137.26 42.9838 136.719 42.5527 135.637 42.2917C134.112 41.9116 133.352 41.1061 133.347 39.8638C133.342 39.5557 133.406 39.2504 133.536 38.9698C133.665 38.6893 133.856 38.4405 134.095 38.2415C134.621 37.8133 135.283 37.5805 135.965 37.5836C136.647 37.5867 137.307 37.8256 137.829 38.2586C138.072 38.4683 138.265 38.7278 138.395 39.0188C138.525 39.3098 138.59 39.6254 138.583 39.9434H137.145C137.148 39.7941 137.119 39.6459 137.06 39.5081C137.002 39.3704 136.915 39.2462 136.805 39.1435C136.57 38.9308 136.261 38.8169 135.942 38.8259C135.642 38.8149 135.349 38.9139 135.119 39.1037C135.012 39.1898 134.926 39.299 134.868 39.423C134.81 39.5469 134.782 39.6822 134.785 39.8186C134.785 40.4028 135.292 40.8169 136.304 41.0608C136.95 41.2013 137.552 41.4931 138.06 41.9116C138.485 42.2975 138.698 42.8249 138.698 43.5C138.705 43.8232 138.638 44.1437 138.502 44.4381C138.367 44.7326 138.166 44.9934 137.916 45.2017C137.375 45.6617 136.679 45.9046 135.965 45.8824V45.8824Z" fill="#FF6300"/>
<path d="M147.206 45.7447H145.44L142.125 42.2505V45.7447H140.727V37.7287H142.125V41.1323L145.393 37.7287H147.137L143.425 41.6995L147.206 45.7447Z" fill="#FF6300"/>
<path d="M154.677 37.7287H156.242L153.014 42.8737V45.7447H151.61V42.8745L148.382 37.7294H149.976L152.329 41.4789L154.677 37.7287Z" fill="#FF6300"/>
<path d="M128.246 25.6728C128.246 25.9704 128.397 26.1192 128.699 26.1193H132.082V11.2319H131.055C129.877 11.2319 128.548 11.887 128.337 13.5536C127.34 11.7672 125.407 10.9036 123.111 10.9036C119.184 10.9036 115.741 14.0003 115.741 18.8835C115.741 23.5285 118.218 26.4464 122.628 26.4464C125.799 26.4464 127.128 25.0172 127.128 23.6178C127.128 22.8733 126.826 22.3375 126.494 22.0992C125.95 22.6651 124.984 23.0819 123.685 23.0819C121.691 23.0819 119.909 21.9802 119.909 18.8835C119.909 15.9358 121.963 14.4767 124.108 14.4767C126.856 14.4767 128.246 16.2335 128.246 18.7941L128.246 25.6728ZM152.35 7.8373L159.509 26.1193H155.431C155.069 26.1193 154.918 25.9704 154.797 25.6429L149.148 10.4277L146.128 18.5266H148.091C149.904 18.5266 150.598 19.2115 151.021 20.3132L151.534 21.6531C151.655 21.9509 151.534 22.1593 151.232 22.1593H144.768L143.318 26.1193H139.573C139.509 26.1264 139.445 26.1165 139.386 26.0906C139.328 26.0647 139.277 26.0237 139.24 25.972C139.203 25.9202 139.181 25.8596 139.176 25.7965C139.17 25.7334 139.183 25.6701 139.211 25.6132L145.886 8.4321C146.581 6.64565 147.487 6.05012 149.027 6.05012H152.35C152.592 6.05012 152.682 6.16925 152.682 6.31814C152.682 6.64565 152.199 6.73489 152.199 7.24118C152.213 7.44711 152.264 7.64893 152.35 7.8373ZM94.8394 25.6728C94.8394 25.9704 94.9904 26.1192 95.2925 26.1193H98.6755V11.2319H97.6485C96.4709 11.2319 95.1415 11.887 94.9301 13.5536C93.9332 11.7672 92.0007 10.9036 89.7043 10.9036C85.7777 10.9036 82.3343 14.0003 82.3343 18.8835C82.3343 23.5285 84.811 26.4464 89.2209 26.4464C92.3926 26.4464 93.7215 25.0172 93.7215 23.6178C93.7215 22.8733 93.4195 22.3375 93.0872 22.0992C92.5436 22.6651 91.5769 23.0819 90.2781 23.0819C88.2847 23.0819 86.5025 21.9802 86.5025 18.8835C86.5025 15.9358 88.5564 14.4767 90.701 14.4767C93.4496 14.4767 94.8391 16.2335 94.8391 18.7941L94.8394 25.6728ZM77.0789 11.7676C77.4112 11.3507 77.5622 11.2316 78.1663 11.2316H82.5461L76.0822 18.3479L82.6971 26.1193H78.1965C77.593 26.1193 77.4415 26.0003 77.1093 25.5834L72.1553 19.5985V26.1193H68.7727C68.4706 26.1193 68.3196 25.9705 68.3196 25.6728V7.92654C68.3233 7.19325 68.6204 6.49103 69.1464 5.97251C69.6725 5.45398 70.3848 5.16106 71.1287 5.1574H72.1553V17.2463L77.0789 11.7676ZM58.9559 7.8373L66.1146 26.1193H62.0371C61.6745 26.1193 61.5236 25.9704 61.4028 25.6429L55.7542 10.4277L52.7338 18.5266H54.6969C56.5093 18.5266 57.2039 19.2115 57.6262 20.3132L58.1397 21.6531C58.2605 21.9509 58.1397 22.1593 57.8376 22.1593H51.3745L49.9247 26.1193H46.1792C46.1154 26.1264 46.0508 26.1165 45.9922 26.0906C45.9336 26.0647 45.8831 26.0237 45.8461 25.972C45.809 25.9202 45.7868 25.8596 45.7816 25.7965C45.7765 25.7334 45.7886 25.6701 45.8168 25.6132L52.4921 8.4321C53.1869 6.64565 54.0929 6.05012 55.6334 6.05012H58.9559C59.1976 6.05012 59.2882 6.16925 59.2882 6.31814C59.2882 6.64565 58.8049 6.73489 58.8049 7.24118C58.8192 7.44711 58.8703 7.64893 58.9559 7.8373ZM168.782 14.0007V25.6728C168.782 25.9704 168.933 26.1192 169.235 26.1193H172.618V18.7051C172.618 16.2634 174.34 14.6257 176.514 14.6257C177.33 14.6257 177.783 14.7151 178.236 14.8937C178.538 14.2988 178.81 13.4348 178.81 12.7796C178.81 11.8865 178.327 11.0528 176.696 11.0528C175.155 11.0528 173.494 12.0652 172.618 14.1792V11.2319H171.592C169.899 11.2319 168.782 12.3334 168.782 14.0007ZM161.714 14.0007C161.717 13.2674 162.014 12.5652 162.54 12.0467C163.066 11.5282 163.779 11.2352 164.523 11.2316H165.55V26.1199H162.167C161.865 26.1199 161.714 25.9711 161.714 25.6734V14.0007ZM100.881 23.4693C100.881 25.4345 104.384 26.4468 107.193 26.4468C110.909 26.4468 113.959 24.72 113.959 21.6232C113.959 19.3305 112.782 17.9907 109.942 17.3059L106.74 16.5317C105.925 16.3232 105.472 15.9957 105.472 15.2513C105.472 14.5368 106.227 14.0904 107.677 14.0904C109.388 14.1054 111.057 14.6125 112.479 15.5493C113.083 14.9544 113.476 14.0904 113.476 13.5544C113.476 11.887 110.697 10.9043 107.647 10.9043C104.385 10.9043 101.394 12.5123 101.394 15.609C101.394 17.9307 102.572 19.3904 105.23 19.9859L108.493 20.7304C109.338 20.909 109.822 21.2662 109.822 21.9512C109.822 22.8146 109.097 23.2612 107.345 23.2612C105.079 23.2612 103.025 22.2488 101.817 21.4449C101.243 22.0401 100.881 22.7246 100.881 23.4693ZM163.677 4.35363C163.361 4.34873 163.047 4.40601 162.753 4.52211C162.46 4.63821 162.193 4.81082 161.968 5.02983C161.743 5.24884 161.564 5.50986 161.443 5.79764C161.322 6.08542 161.259 6.39418 161.26 6.70587C161.251 7.02116 161.307 7.33499 161.426 7.62812C161.544 7.92125 161.721 8.1875 161.948 8.41055C162.174 8.63359 162.444 8.80873 162.741 8.92522C163.039 9.04171 163.357 9.09711 163.677 9.088C165.036 9.088 166.124 8.10532 166.124 6.70587C166.121 6.39261 166.056 6.08292 165.931 5.79471C165.807 5.50651 165.625 5.2455 165.398 5.02677C165.17 4.80804 164.901 4.63594 164.606 4.5204C164.31 4.40486 163.995 4.34818 163.677 4.35363Z" fill="#5C0FD9"/>
<path d="M0.269156 29.1467L11.3636 10.5785C11.5465 10.278 11.6683 10.1577 11.8512 10.1577C12.0646 10.1577 12.156 10.308 12.3084 10.5484C13.741 13.0421 14.442 15.4759 14.442 18.0897C14.442 25.0604 8.86425 29.8977 0.878727 29.8977C0.726371 29.8977 0.14727 29.8977 0.14727 29.5072C0.145484 29.3769 0.188439 29.2499 0.269156 29.1467Z" fill="#FF6300"/>
<path d="M25.7292 11.9523L35.452 29.0784C35.6958 29.4992 35.5435 29.8595 34.9339 29.8595C27.8017 29.8595 24.4796 27.2156 21.7974 22.4983L14.2996 9.27876C13.8424 8.49749 13.69 7.95666 13.69 7.5061C13.69 6.99531 13.9033 6.3944 14.5129 5.31275L15.4273 3.66052C16.7683 1.22673 18.2314 0.145081 21.6755 0.145081H24.1138C24.4796 0.145081 24.5101 0.415566 24.3271 0.625831C23.6871 1.37707 23.108 2.42868 23.108 4.20135C23.108 6.00333 23.7785 8.49705 25.7292 11.9523Z" fill="#FF6300"/>
</svg>
