<svg version="1.2" xmlns="http://www.w3.org/2000/svg" viewBox="0 0 513 398" width="513" height="398" fill="#1D50B1"><style></style><path  d="m141.5 1c-1.7 0.5-5.9 1.6-9.5 2.5-3.6 1-9.7 3.2-13.5 4.9-3.9 1.8-9.7 5-13 7.3-3.3 2.2-8.6 6.4-11.9 9.4-3.2 3-8.4 8.8-11.4 12.9-3.1 4.1-7.3 10.9-9.3 15-2 4.1-4.8 11.1-6.2 15.5-1.4 4.4-3.1 11.8-3.8 16.5-0.7 5.2-1 12.8-0.6 19.5 0.3 6.5 1.6 14.8 3 20.5 1.3 5.2 4 12.9 5.9 17 1.8 4.1 5.6 10.8 8.3 14.9 2.8 4 8.8 11 13.5 15.5 4.7 4.5 11.6 10.1 15.5 12.4 3.8 2.3 10.4 5.5 14.5 7.1 4.1 1.6 11 3.6 15.3 4.5 4.2 0.9 12 1.6 17.2 1.6 5.2 0 13-0.7 17.3-1.6 4.2-0.9 11.1-2.9 15.2-4.4 4.1-1.6 11.1-5.2 15.5-8.1 4.4-2.8 11.4-8.6 15.6-12.8 4.1-4.2 9.4-10.3 11.6-13.6 2.2-3.3 5.7-9.3 7.7-13.3 2-3.9 4.7-10.9 6-15.4 1.3-4.6 3-13.3 3.6-19.3 0.9-8.5 0.9-13.3 0-21-0.7-5.5-2.3-13.8-3.7-18.5-1.3-4.7-3.9-11.7-5.8-15.5-1.8-3.9-5-9.5-7.1-12.5-2.1-3-5.6-7.7-7.8-10.3-2.3-2.7-7.3-7.4-11.1-10.6-3.9-3.1-9.9-7.3-13.5-9.3-3.6-2-9-4.6-12-5.7-3-1.1-9.3-2.9-14-4.1-6-1.4-11.5-2-18.5-1.9-5.5 0.1-11.4 0.5-13 0.9zm210.5 200c-5.2 0.4-14.2 1.9-20 3.3-5.8 1.4-13.4 3.6-17 5-3.6 1.3-9.7 4-13.5 5.9-3.9 2-11.1 6.3-16 9.7-5 3.3-10.5 7.3-12.3 8.8l-3.3 2.8c10.5 8.7 17.4 15.4 22.1 20.6 4.8 5.2 10.9 12.5 13.7 16.4 2.8 3.8 7 10.1 9.3 14 2.4 3.8 6.1 10.8 8.2 15.5 2.2 4.7 5.3 12.1 6.9 16.5 1.5 4.4 3.7 11.6 4.9 16 1.1 4.4 2.7 12.5 3.5 18 0.8 5.5 1.5 11.5 1.5 13.3v3.2h172.5c-1.2-42.4-1.8-49.7-3.5-57.5-1.2-5.5-3.1-12.7-4.2-16-1.1-3.3-4.4-11-7.3-17-2.9-6.1-8.2-15-11.7-19.9-3.4-4.9-9.9-12.6-14.3-17-4.4-4.5-10.9-10.4-14.5-13.1-3.6-2.7-10.6-7.3-15.5-10.3-5-2.9-13.5-7-19-9.1-5.5-2.1-13.2-4.5-17-5.4-3.9-0.9-9.7-2.1-13-2.6-3.3-0.6-11.6-1.2-18.5-1.5-6.9-0.2-16.8-0.1-22 0.4zm-213.5 29c-5 0.4-12.8 1.5-17.5 2.4-4.7 1-13.2 3.3-19 5.3-5.8 1.9-14.3 5.5-19 7.9-4.7 2.4-11.9 6.6-16 9.3-4.1 2.8-10.8 7.9-14.8 11.3-4.1 3.5-10 9.2-13.1 12.8-3.2 3.6-8.3 9.9-11.2 14-3 4.1-7.7 12-10.6 17.5-2.8 5.5-6.5 13.6-8.1 18-1.6 4.4-3.9 12.5-5.1 18-1.2 5.5-2.6 11.9-3.1 14.2-0.6 2.4-1 11.7-1 20.8v16.5h311c0-14.3-0.5-23.5-1-29.5-0.6-6.1-2-15.5-3.2-21-1.1-5.5-3.3-13.4-4.9-17.5-1.5-4.1-4.1-10.5-5.8-14.3-1.7-3.7-5.4-10.4-8.3-15-2.8-4.5-7.5-11.1-10.3-14.7-2.9-3.6-9.4-10.5-14.6-15.4-5.2-4.9-12.6-11.1-16.4-13.8-3.9-2.7-10.6-6.9-15-9.3-4.4-2.4-12.1-5.9-17-7.8-5-1.9-13.7-4.7-19.5-6.1-5.8-1.4-16.4-3-23.5-3.6-7.2-0.5-15.5-0.9-18.5-0.9-3 0.1-9.6 0.5-14.5 0.9zm219.3-214.9c-3.8 0.5-10.1 2-14.1 3.3-3.9 1.3-10.4 4.2-14.2 6.4-3.9 2.2-10.3 7.1-14.4 10.9-4 3.7-9.7 10.4-12.7 14.8-2.9 4.4-6.6 11.4-8.2 15.5-1.7 4.1-3.8 11-4.6 15.3-0.9 4.2-1.6 12.2-1.6 17.7 0 5.5 0.7 13.5 1.6 17.8 0.9 4.2 2.7 10.6 4 14.2 1.4 3.6 4.2 9.4 6.3 13 2.1 3.6 5.6 8.6 7.7 11.1 2.2 2.5 6.6 6.9 9.9 9.8 3.3 2.9 9.1 7 13 9.2 3.8 2.2 10.6 5.1 15 6.5 5.8 1.8 11 2.7 19 3.1 7.7 0.3 13.1 0.1 18-1 3.8-0.8 9.9-2.6 13.5-4.1 3.6-1.4 8.9-4.1 11.9-5.9 3-1.7 8.6-6.1 12.4-9.7 3.9-3.6 8.6-8.7 10.6-11.5 2.1-2.7 4.9-7 6.3-9.5 1.4-2.5 3.9-8.3 5.6-13 1.6-4.7 3.5-11.8 4.1-15.7 0.6-4 1.1-10.6 1.1-14.5 0-4-0.7-11.1-1.6-15.8-0.9-4.7-2.7-11.4-4-15-1.4-3.6-4.2-9.4-6.3-13-2.1-3.6-6.3-9.4-9.2-12.9-3-3.6-8.3-8.7-11.9-11.4-3.6-2.7-10.1-6.6-14.5-8.7-4.4-2.1-10.9-4.5-14.5-5.3-3.6-0.9-9.9-1.8-14-2-4.1-0.3-10.5-0.1-14.3 0.4z"/></svg>